<?xml version="1.0" encoding="UTF-8"?>
<svg version="1.1" xmlns="http://www.w3.org/2000/svg" xmlns:xlink="http://www.w3.org/1999/xlink">
<defs>

</defs>
<symbol id="i-arrow-right" viewBox="0 0 14 14" xmlns="http://www.w3.org/2000/svg"><path d="M7.19.64l6.623 6.362-6.624 6.36-.692-.721 5.351-5.14H0v-1h11.848l-5.351-5.14.692-.72z"/></symbol>
<symbol id="i-arrow" viewBox="0 0 27 9" fill="none" xmlns="http://www.w3.org/2000/svg"><path fill="currentColor" d="M0 3.857h24.97v1.286H0z"/><path d="M21.445 9V0l5.55 4.568L21.444 9z" fill="currentColor"/></symbol>
<symbol id="i-cancel" viewBox="0 0 10 10" fill="none" xmlns="http://www.w3.org/2000/svg"><path d="M1 1l4 4m0 0l4-4M5 5L1 9m4-4l4 4" stroke="currentColor" stroke-linejoin="round"/></symbol>
<symbol id="i-car" viewBox="0 0 20 13" xmlns="http://www.w3.org/2000/svg"><path d="M19.07 4.009h-1.224a.91.91 0 00-.605.224L16.037.435A.655.655 0 0015.426 0H4.554c-.266 0-.532.186-.606.435L2.74 4.233a.91.91 0 00-.605-.224H.911c-.505 0-.911.39-.911.877v.135c0 .486.406.877.91.877h.892c-.492.365-.751.762-.751 1.166v5.481c0 .244.206.449.465.449h2.886a.458.458 0 00.465-.449v-.518h10.266v.525c0 .243.206.448.465.448h2.886a.459.459 0 00.465-.448V7.057c0-.403-.259-.8-.75-1.165h.89c.505 0 .911-.391.911-.878V4.88a.922.922 0 00-.93-.871zM4.64 1.139a.427.427 0 01.412-.294h9.874c.193 0 .352.116.412.295l1.23 3.874c-.818-.128-3.51-.217-6.576-.217-3.065 0-5.758.09-6.575.217L4.64 1.14zm-.645 7.602c-.632 0-1.15-.493-1.15-1.107 0-.609.512-1.108 1.15-1.108.638 0 1.15.493 1.15 1.107 0 .615-.512 1.108-1.15 1.108zm9.501.34l-.212.621c-.047.134-.148.177-.32.224-.65.18-1.947.474-2.965.474a9.94 9.94 0 01-2.985-.474c-.148-.047-.273-.09-.32-.224l-.212-.621a.314.314 0 01.046-.295.324.324 0 01.273-.134s1.948.463 3.198.463 3.171-.463 3.171-.463c.114 0 .207.045.273.134a.296.296 0 01.053.295zm2.487-.34c-.632 0-1.15-.493-1.15-1.107 0-.609.512-1.108 1.15-1.108.632 0 1.15.493 1.15 1.107 0 .615-.518 1.108-1.15 1.108z" fill="#fff"/></symbol>
<symbol id="i-checkbox" viewBox="0 0 10 7" fill="none" xmlns="http://www.w3.org/2000/svg"><path d="M0 2.884L.884 2l3.768 3.768-.884.884L0 2.884z" fill="currentColor"/><path d="M3 5.645L8.644 0l.884.884-5.644 5.644L3 5.645z" fill="currentColor"/></symbol>
<symbol id="i-chevron-bottom" viewBox="0 0 12 12" fill="none" xmlns="http://www.w3.org/2000/svg"><path d="M2 4l4 4 4-4" stroke="currentColor" stroke-width="1.5" stroke-linecap="round"/></symbol>
<symbol id="i-chevron-left" viewBox="0 0 16 16" fill="none" xmlns="http://www.w3.org/2000/svg"><path d="M10 12L6 8l4-4" stroke="currentColor" stroke-width="1.5" stroke-linecap="round" stroke-linejoin="round"/></symbol>
<symbol id="i-chevron-right" viewBox="0 0 17 16" fill="none" xmlns="http://www.w3.org/2000/svg"><path d="M6.5 12l4-4-4-4" stroke="currentColor" stroke-width="1.5" stroke-linecap="round" stroke-linejoin="round"/></symbol>
<symbol id="i-chevron" viewBox="0 0 12 7" fill="none" xmlns="http://www.w3.org/2000/svg"><path d="M6 6.598L11.656.94l-.707-.706-4.95 4.95L1.05.234.344.941 6 6.598z" fill="currentColor"/></symbol>
<symbol id="i-clip" viewBox="0 0 22 22" fill="none" xmlns="http://www.w3.org/2000/svg"><path d="M5.243 11.253l7.425-7.425a4 4 0 015.657 0v0a4 4 0 010 5.657l-9.546 9.546a3 3 0 01-4.243 0v0a3 3 0 010-4.242l8.485-8.486a2 2 0 012.829 0v0a2 2 0 010 2.829l-6.364 6.364" stroke="currentColor"/></symbol>
<symbol id="i-close-fill" viewBox="0 0 16 16" fill="none" xmlns="http://www.w3.org/2000/svg"><path fill-rule="evenodd" clip-rule="evenodd" d="M0 8a8 8 0 1116 0A8 8 0 010 8zm11.181 2.475l-.706.707L8 8.708l-2.476 2.475-.707-.707L7.292 8 4.816 5.526l.707-.707L8 7.294l2.476-2.476.706.708L8.706 8l2.475 2.475z" fill="currentColor"/></symbol>
<symbol id="i-close-ui" viewBox="0 0 40 40" xmlns="http://www.w3.org/2000/svg"><path d="M0 20C0 8.954 8.954 0 20 0s20 8.954 20 20-8.954 20-20 20S0 31.046 0 20z" fill="none"/><path d="M14.001 14l6 5.94L26 14m-.001 12l-6-5.94L14 26" fill="none" stroke="currentColor" stroke-width="1.8" stroke-linecap="round"/></symbol>
<symbol id="i-close" viewBox="0 0 16 16" fill="none" xmlns="http://www.w3.org/2000/svg"><circle cx="8" cy="8" r="7.5" stroke="currentColor"/><path fill-rule="evenodd" clip-rule="evenodd" d="M7.997 7.427L4.785 4.215l-.8.8 3.212 3.212-2.974 2.974.8.8 2.974-2.973L10.97 12l.8-.8-2.973-2.973 3.212-3.211-.8-.8-3.212 3.211z" fill="currentColor"/></symbol>
<symbol id="i-curly-arrow" viewBox="0 0 24 14" fill="none" xmlns="http://www.w3.org/2000/svg"><path d="M0 6.75h24m0 0a6 6 0 01-6-6m6 6.5a6 6 0 00-6 6" stroke="currentColor"/></symbol>
<symbol id="i-flash" viewBox="0 0 12 12" fill="none" xmlns="http://www.w3.org/2000/svg"><path d="M10 5H7.149l.867-5L1 7h2.851l-.867 5L10 5z" fill="currentColor"/></symbol>
<symbol id="i-icon-success" viewBox="0 0 28 28" xmlns="http://www.w3.org/2000/svg"><rect width="28" height="28" rx="14" fill="var(--icon-main-color)"/><path d="M9.2 13.17l3.959 3.835 5.923-5.697" stroke="var(--bg-main-color)" fill="none" stroke-width="1.5" stroke-linecap="round"/></symbol>
<symbol id="i-info-circle" viewBox="0 0 16 16" fill="none" xmlns="http://www.w3.org/2000/svg"><path fill-rule="evenodd" clip-rule="evenodd" d="M8 16A8 8 0 108 0a8 8 0 000 16zM9 3a1 1 0 100 2 1 1 0 000-2zm.4 3h-2l-1.87 7h2L9.4 6z" fill="currentColor"/></symbol>
<symbol id="i-like" viewBox="0 0 12 12" fill="none" xmlns="http://www.w3.org/2000/svg"><path d="M6 3.386C7.404-.16 12 .41 12 4.021c0 3.971-6 7.783-6 7.783S0 7.992 0 4.021C0 .41 4.596-.16 6 3.386z" fill="currentColor"/></symbol>
<symbol id="i-load" viewBox="0 0 15 13" fill="none" xmlns="http://www.w3.org/2000/svg"><path d="M7.5 12.95c-3.6 0-6.5-2.9-6.5-6.5 0-1.6.6-3.1 1.65-4.3l.75.65C2.5 3.8 2 5.1 2 6.45c0 3.05 2.45 5.5 5.5 5.5.8 0 1.55-.15 2.3-.5l.4.9c-.85.4-1.75.6-2.7.6zM12.35 10.8l-.75-.65c.9-1 1.4-2.3 1.4-3.65C13 3.45 10.55 1 7.5 1c-.8 0-1.55.15-2.3.5L4.8.6C5.65.2 6.55 0 7.5 0 11.1 0 14 2.9 14 6.5c0 1.55-.6 3.1-1.65 4.3z" fill="currentColor"/><path d="M4 5.95H3v-3H0v-1h4v4zM15 10.95h-4v-4h1v3h3v1z" fill="currentColor"/></symbol>
<symbol id="i-login" viewBox="0 0 21 17" fill="none" xmlns="http://www.w3.org/2000/svg"><path d="M1 8a.5.5 0 000 1V8zm14.354.854a.5.5 0 000-.708l-3.182-3.182a.5.5 0 10-.708.708L14.293 8.5l-2.829 2.828a.5.5 0 10.708.708l3.182-3.182zM1 9h14V8H1v1z" fill="currentColor"/><path d="M6.843 14.157a.477.477 0 00.01.696 8.5 8.5 0 100-12.706.477.477 0 00-.01.696c.195.195.51.193.718.012a7.501 7.501 0 110 11.29.526.526 0 00-.718.012z" fill="currentColor"/></symbol>
<symbol id="i-long-arrow" viewBox="0 0 34 5" fill="none" xmlns="http://www.w3.org/2000/svg"><path fill="currentColor" d="M0 2h32v1H0z"/><path d="M30.043 5V0l3 2.538-3 2.462z" fill="currentColor"/></symbol>
<symbol id="i-percent" viewBox="0 0 12 12" fill="none" xmlns="http://www.w3.org/2000/svg"><path d="M12 .707L.707 12 0 11.293 11.293 0 12 .707zM0 2.5C0 1.121 1.121 0 2.5 0S5 1.121 5 2.5 3.879 5 2.5 5A2.502 2.502 0 010 2.5zm12 7c0 1.379-1.121 2.5-2.5 2.5A2.502 2.502 0 017 9.5C7 8.121 8.121 7 9.5 7S12 8.121 12 9.5z" fill="currentColor"/></symbol>
<symbol id="i-person" viewBox="0 0 12 19" xmlns="http://www.w3.org/2000/svg"><path d="M5.022 1.94c-.04-.478.11-.937.429-1.301A1.87 1.87 0 016.719.007C7.747-.08 8.656.648 8.746 1.634c.04.479-.11.939-.43 1.302a1.87 1.87 0 01-1.268.632c-.06 0-.11.01-.16.01-.968 0-1.777-.709-1.866-1.637zm1.707 9.45l.519-5.725c.08-.843-.619-1.475-1.338-1.532-.29-.029-.669.029-.948.21-.15.106-1.298.872-2.137 1.437-.44.296-.799.536-.859.574-.21.143-.27.24-.339.383A939.47 939.47 0 01.08 9.934c-.2.412-.01.9.419 1.092.14.057.29.086.44.076a.881.881 0 00.708-.469l1.468-3.025 1.078-.728c-.07.757-.27 2.959-.3 3.303-.04.421.12.766.21.89.03.039 5.262 7.2 5.481 7.506.18.249.49.402.809.402h.09a.95.95 0 00.479-.163.948.948 0 00.41-.603.903.903 0 00-.16-.708l-4.483-6.118zM5.08 14.08l-1.198-1.647L.18 17.516a.923.923 0 00.24 1.312c.17.115.36.172.56.172h.089c.29-.029.55-.172.719-.402l3.294-4.519zm2.786-5.362l2.915 1.302a.93.93 0 00.36.077h.07a.88.88 0 00.709-.47c.2-.41.01-.899-.42-1.09l-3.474-1.56-.16 1.741z" fill="#fff"/></symbol>
<symbol id="i-play-2" viewBox="0 0 24 24" xmlns="http://www.w3.org/2000/svg"><path fill-rule="evenodd" clip-rule="evenodd" d="M12 24c6.627 0 12-5.373 12-12S18.627 0 12 0 0 5.373 0 12s5.373 12 12 12zm-3-6.75L18.094 12 9 6.75v10.5z" fill="currentColor"/></symbol>
<symbol id="i-play" fill="none" xmlns="http://www.w3.org/2000/svg" viewBox="0 0 56 56"><path d="M0 28a28 28 0 1156 0 28 28 0 01-56 0z" fill="#000" fill-opacity=".5"/><path d="M35 27.4c.4.3.4 1 0 1.2l-10 5.8c-.4.2-1-.1-1-.6V22.2c0-.5.6-.8 1-.6l10 5.8z" fill="#fff"/></symbol>
<symbol id="i-row-1" viewBox="0 0 34 32" fill="none" xmlns="http://www.w3.org/2000/svg"><path d="M16.996 0v32M34 15.996H0m29.02 11.313L4.977 4.68m.003 22.629L29.022 4.68" stroke="currentColor" stroke-width="2"/></symbol>
<symbol id="i-row-10" fill="none" xmlns="http://www.w3.org/2000/svg" viewBox="0 0 28 28"><circle cx="14" cy="14" r="13.25" stroke="currentColor" stroke-width="1.5"/><path d="M14.07 3.89v20.16m10.56-10.09H3.52m18.02 7.14L6.6 6.83m.01 14.27L21.54 6.83" stroke="currentColor" stroke-width="1.5"/></symbol>
<symbol id="i-row-2" viewBox="0 0 28 28" fill="none" xmlns="http://www.w3.org/2000/svg"><path clip-rule="evenodd" d="M27.735 14.02h-.032l-.017.001-.023.002-.025.001-.03.002-.034.003-.038.004-.041.004-.046.005-.049.006-.053.007-.056.008-.06.01-.065.01-.067.011-.072.013-.075.015-.078.015-.081.018-.085.019-.088.02-.092.023-.095.024-.097.026-.101.027-.104.03-.107.031-.11.034-.112.036-.114.037-.118.04-.12.042-.123.044-.125.047-.127.049-.13.05-.13.054-.134.056-.135.058-.138.06-.139.063-.14.065-.142.068-.144.07-.145.073-.146.075-.148.077-.149.08-.15.083-.15.085-.151.087-.152.09-.153.092-.153.094-.154.097-.154.1-.154.1-.154.105-.155.106-.154.108-.155.11-.154.113-.153.115-.154.117-.153.12-.152.12-.151.123-.151.125-.15.127-.15.128-.148.13-.147.132-.146.134-.144.135-.144.136-.142.138-.14.14-.14.14-.137.142-.136.143-.134.143-.132.145-.13.146-.13.147-.126.147-.125.148-.122.149-.121.149-.118.15-.117.15-.114.15-.111.15-.11.15-.107.15-.105.15-.102.15-.1.15-.098.148-.095.149-.093.148-.09.147-.087.147-.085.146-.083.144-.08.144-.078.142-.075.142-.072.14-.07.138-.068.137-.065.136-.063.133-.06.132-.057.13-.056.128-.052.126-.05.124-.05.122-.045.12-.043.117-.042.114-.039.112-.037.11-.035.107-.033.104-.03.101-.03.099-.026.095-.025.092-.024.09-.021.086-.02.083-.018.08-.016.076-.015.073-.014.07-.012.066-.011.063-.01.059-.008.055-.008.052-.006.048-.006.045-.004.04-.004.038-.003.033-.002.03-.002.025-.001.021-.001.018v.014l-.001.01v.009-.017L14.35 27v-.017l-.002-.022-.002-.024-.002-.03-.002-.032-.004-.036-.004-.04-.005-.044-.006-.048-.007-.051-.008-.055-.01-.059-.01-.062-.011-.065-.013-.07-.015-.072-.016-.076-.017-.08-.02-.082-.02-.085-.023-.09-.024-.091-.026-.095-.028-.098-.03-.1-.032-.104-.034-.107-.036-.109-.039-.112-.04-.114-.043-.117-.045-.119-.047-.121-.05-.124-.051-.125-.054-.128-.057-.13-.06-.132-.06-.133-.065-.135-.066-.137-.069-.138-.071-.14-.074-.141-.077-.142-.079-.144-.081-.144-.084-.146-.087-.146-.089-.147-.091-.148-.094-.149-.097-.149-.099-.15-.1-.15-.105-.15-.106-.15-.108-.15-.11-.15-.114-.15-.115-.15-.117-.15-.12-.148-.121-.149-.124-.148-.125-.148-.128-.146-.13-.146-.13-.145-.134-.145-.135-.143-.136-.142-.138-.14-.14-.14-.141-.138-.143-.137-.144-.135-.145-.134-.146-.132-.147-.13-.149-.13-.149-.126-.15-.125-.15-.123-.152-.122-.153-.119-.152-.117-.153-.115-.154-.114-.154-.11-.153-.11-.154-.106-.154-.104-.154-.102-.154-.1-.153-.097-.153-.095-.152-.092-.152-.09-.15-.088-.151-.085-.15-.083-.148-.08-.147-.078-.146-.075-.145-.073-.144-.071-.142-.068-.14-.066-.14-.063-.137-.06-.135-.06-.133-.055-.132-.054-.13-.051-.127-.05-.125-.046-.122-.045-.12-.042-.118-.04-.116-.038-.112-.036-.11-.034-.107-.032-.104-.03-.101-.028-.098-.026-.095-.025-.092-.022-.089-.021-.085-.02-.082-.017-.08-.016-.074-.014-.072-.014-.068-.012-.065-.01-.06-.01-.058-.008-.053-.007-.05-.006-.046-.005-.042-.005-.039-.003-.034-.003-.03-.003-.027-.001-.023-.002H1.05l-.01-.001h-.01.017l.013-.001h.017l.021-.002.026-.002.029-.002.033-.002.037-.004.041-.004.045-.005.048-.006.053-.007.056-.007.06-.01.063-.01.067-.011.07-.013.075-.014.078-.016.08-.017.085-.018.088-.02.09-.023.095-.023.097-.026.1-.027.104-.03.106-.03.11-.034.111-.036.115-.037.117-.04.12-.041.122-.044.124-.046.127-.048.129-.051.131-.053.133-.055.135-.058.137-.06.14-.063.14-.064.141-.068.144-.07.145-.072.146-.074.147-.078.149-.079.15-.082.15-.085.15-.086.153-.09.152-.091.154-.095.153-.096.154-.099.154-.101.155-.104.154-.105.154-.108.155-.11.154-.113.154-.114.153-.117.153-.119.152-.12.152-.123.151-.124.15-.127.15-.128.148-.13.147-.132.146-.133.145-.135.144-.136.142-.138.14-.139.14-.14.138-.142.136-.142.134-.144.133-.145.13-.146.13-.146.127-.147.125-.148.123-.149.12-.149.12-.15.116-.15.114-.15.113-.15.11-.15.107-.15.105-.15.103-.15.1-.15.098-.148.096-.15.093-.147.09-.148.088-.146.086-.146.083-.145.08-.144.078-.142.076-.142.073-.14.07-.139.068-.137.066-.136.062-.134.06-.132.059-.13.056-.129.053-.126.05-.124.05-.123.046-.12.043-.117.042-.115.04-.112.037-.11.035-.108.033-.104.032-.102.029-.099.027-.096.025-.093.024-.09.021-.086.02-.084.019-.08.017-.077.015-.073.014-.07.012-.067.011-.064.01-.06.009-.055.008-.053.006-.049.006-.045.004-.041.004-.038.003-.033.003-.03.002-.027.001-.022.001-.018V1.02l.001-.007V1.01h0v.027l.001.017.001.02.002.025.002.028.003.032.003.036.004.04.005.042.006.047.007.051.008.054.008.058.01.062.012.065.013.069.014.072.016.075.017.079.019.082.02.085.023.088.024.092.026.094.027.098.03.1.032.103.033.106.036.109.038.111.04.114.043.116.044.119.047.121.049.123.052.126.053.127.057.13.058.13.061.134.064.135.066.136.069.138.07.14.074.14.076.143.079.143.081.145.084.145.086.146.088.147.091.148.094.149.096.148.099.15.1.15.104.15.105.15.108.15.11.15.113.15.115.15.117.15.12.149.12.149.124.148.125.148.127.146.13.147.13.145.133.144.135.143.136.142.138.141.14.14.14.138.143.137.143.136.145.134.146.132.147.131.149.13.149.126.15.126.15.123.152.122.152.12.153.117.153.116.153.113.154.111.154.11.154.106.153.105.154.102.154.1.153.098.153.095.152.093.152.09.152.088.15.086.15.083.148.08.148.08.146.075.145.073.144.071.142.069.14.066.14.063.138.062.135.059.134.056.132.054.13.052.127.05.126.046.123.045.12.043.119.04.115.039.113.036.11.034.108.033.104.03.102.028.099.027.095.024.093.023.089.021.086.02.082.018.08.016.075.015.073.013.068.012.066.01.061.01.058.009.054.007.05.006.047.006.043.005.038.003.035.003.031.003.028.001.023.002h.02l.014.001h.022z" stroke="currentColor" stroke-width="2"/></symbol>
<symbol id="i-row-3" viewBox="0 0 26 26" fill="none" xmlns="http://www.w3.org/2000/svg"><rect x="1" y="1" width="24" height="24" rx="12" stroke="currentColor" stroke-width="2"/></symbol>
<symbol id="i-row-4" fill="none" xmlns="http://www.w3.org/2000/svg" viewBox="0 0 28 28"><path d="M20.7 13.4l-.7.6.7.6 1.4 1.3c2.2 2.2 3.8 4.6 4.6 6.6.4 1 .6 2 .5 2.6 0 .8-.2 1.3-.5 1.6-.3.3-.8.5-1.6.5a7 7 0 01-2.6-.5 20.1 20.1 0 01-8-6L14 20l-.6.7-1.3 1.4a20.1 20.1 0 01-6.6 4.6 7 7 0 01-2.6.5c-.8 0-1.3-.2-1.6-.5-.3-.3-.5-.8-.5-1.6 0-.7.1-1.6.5-2.6a20.1 20.1 0 016-8L8 14l-.7-.6-1.4-1.3a20.1 20.1 0 01-4.6-6.6 7 7 0 01-.5-2.6c0-.8.2-1.3.5-1.6.3-.3.8-.5 1.6-.5a7 7 0 012.6.5 20.1 20.1 0 018 6l.5.7.6-.7 1.3-1.4c2.2-2.2 4.6-3.8 6.6-4.6 1-.4 2-.6 2.6-.5.8 0 1.3.2 1.6.5.3.3.5.8.5 1.6a7 7 0 01-.5 2.6 20.1 20.1 0 01-6 8z" stroke="currentColor" stroke-width="1.5"/></symbol>
<symbol id="i-row-5" fill="none" xmlns="http://www.w3.org/2000/svg" viewBox="0 0 28 28"><circle cx="14" cy="14" r="6" stroke="currentColor" stroke-width="1.5"/><circle cx="14" cy="14" r="13.3" stroke="currentColor" stroke-width="1.5"/></symbol>
<symbol id="i-row-6" viewBox="0 0 18 18" fill="none" xmlns="http://www.w3.org/2000/svg"><path d="M3.02 17.3L8.243 3.76V17.3H3.02zm6.943 0l5.223-13.54V17.3H9.963z" stroke="currentColor" stroke-width="1.4"/></symbol>
<symbol id="i-row-7" viewBox="0 0 14 14" fill="none" xmlns="http://www.w3.org/2000/svg"><path d="M2.35 7A3.336 3.336 0 011 4.298C1 2.476 2.417 1 4.166 1 5.406 1 6.48 1.744 7 2.826 7.52 1.744 8.593 1 9.834 1 11.583 1 13 2.476 13 4.298A3.335 3.335 0 0111.65 7 3.335 3.335 0 0113 9.702C13 11.524 11.583 13 9.834 13 8.594 13 7.52 12.256 7 11.174 6.48 12.256 5.407 13 4.166 13 2.417 13 1 11.524 1 9.702 1 8.584 1.534 7.596 2.35 7z" stroke="currentColor" stroke-width="1.4"/></symbol>
<symbol id="i-row-8" viewBox="0 0 8 8" fill="none" xmlns="http://www.w3.org/2000/svg"><path d="M.707 4L4 .707 7.293 4 4 7.293.707 4z" stroke="currentColor"/></symbol>
<symbol id="i-row-9" fill="none" xmlns="http://www.w3.org/2000/svg" viewBox="0 0 30 30"><path d="M29 1H11L1 10v19h19.2l8.8-9.5V1z" stroke="currentColor" stroke-width="1.5"/><path d="M1 10h19v19" stroke="currentColor" stroke-width="1.5"/><path d="M11 1l.3 18H29" stroke="currentColor" stroke-width="1.5"/></symbol>
<symbol id="i-select-arrow" viewBox="0 0 10 6" fill="none" xmlns="http://www.w3.org/2000/svg"><path d="M1 1l4 4 4-4" stroke="currentColor" stroke-linecap="round" stroke-linejoin="round"/></symbol>
<symbol id="i-smile" viewBox="0 0 12 12" fill="none" xmlns="http://www.w3.org/2000/svg"><path fill-rule="evenodd" clip-rule="evenodd" d="M6 12A6 6 0 105.998-.002 6 6 0 006 12zM3 5a1 1 0 112 0 1 1 0 01-2 0zm4 0a1 1 0 112 0 1 1 0 01-2 0zM3.724 7c.272.363.549.724.837 1.066l.02.023c.15.177.743.872 1.421.872s1.284-.712 1.439-.894l.018-.022c.281-.337.552-.689.818-1.045H3.724z" fill="currentColor"/></symbol>
<symbol id="i-sparks" viewBox="0 0 12 12" fill="none" xmlns="http://www.w3.org/2000/svg"><path d="M7.5 12C6.845 9.341 5.658 8.152 3 7.5 5.658 6.848 6.845 5.659 7.5 3c.655 2.659 1.842 3.848 4.5 4.5-2.658.652-3.845 1.841-4.5 4.5zM5 2.5C3.524 2.138 2.864 1.477 2.5 0 2.137 1.477 1.476 2.138 0 2.5c1.476.362 2.137 1.022 2.5 2.5.364-1.478 1.024-2.138 2.5-2.5z" fill="currentColor"/></symbol>
<symbol id="i-spoiler-arrow" viewBox="0 0 32 32" xmlns="http://www.w3.org/2000/svg"><path d="M0 16a16 16 0 1132 0 16 16 0 01-32 0z"/><path d="M12 14l4 4 4-4" stroke="currentColor" stroke-width="1.5" stroke-linecap="round"/></symbol>
<symbol id="i-star" viewBox="0 0 11 10" fill="none" xmlns="http://www.w3.org/2000/svg"><path d="M5.5 0l1.616 3.275 3.615.525-2.616 2.55.618 3.6L5.5 8.25l-3.233 1.7.618-3.6L.269 3.8l3.615-.525L5.5 0z" fill="currentColor"/></symbol>
<symbol id="i-template" viewBox="0 0 12 12" fill="none" xmlns="http://www.w3.org/2000/svg"><path fill-rule="evenodd" clip-rule="evenodd" d="M9.413.326c1.573.303 2.351.766 2.515 2.58.048.547.072 1.08.072 1.592s-.024 1.048-.072 1.592c-.164 1.818-.942 2.281-2.516 2.583a3.277 3.277 0 01-.234.035c-.06.008-.119.015-.178.025V12L6 8.999c-1.15 0-2.297-.109-3.414-.325-1.573-.302-2.35-.766-2.514-2.58A18.287 18.287 0 010 4.5c0-.512.024-1.047.072-1.591.164-1.818.942-2.28 2.516-2.583a18.009 18.009 0 016.825 0zM6 3.796c.468-1.182 2-.992 2 .21 0 1.325-2 2.596-2 2.596S4 5.33 4 4.007c0-1.203 1.531-1.393 2-.211z" fill="currentColor"/></symbol>
<symbol id="i-thumb-up" viewBox="0 0 12 12" fill="none" xmlns="http://www.w3.org/2000/svg"><path d="M11.641 5H7.255l.17-.5C7.796 3.062 8 1.556 8 0H6.377L4 4.116v7.092c.205.069.41.143.619.198l.008.002c1.104.296 2.24.486 3.373.567 1.6.115 2.469-.13 3.1-1.843.186-.514.348-1.025.48-1.521.133-.494.248-1.018.344-1.558.162-.945.058-1.57-.283-2.053zM3 5H0v6h3V5z" fill="currentColor"/></symbol>
<symbol id="i-time" viewBox="0 0 12 12" fill="none" xmlns="http://www.w3.org/2000/svg"><path fill-rule="evenodd" clip-rule="evenodd" d="M0 6a6 6 0 1112 0A6 6 0 010 6zm8 1H5V2h1v4h2v1z" fill="currentColor"/></symbol>
<symbol id="i-tooltip" viewBox="0 0 16 16" fill="none" xmlns="http://www.w3.org/2000/svg"><path d="M16 8A8 8 0 110 8a8 8 0 0116 0zm-1 0c0-3.859-3.141-7-7-7S1 4.141 1 8s3.141 7 7 7 7-3.141 7-7zM9 3a1 1 0 100 2 1 1 0 000-2zm.4 3h-2l-1.871 7h2L9.4 6z" fill="currentColor"/></symbol>
<symbol id="i-ui-attach" viewBox="0 0 24 24" fill="none" xmlns="http://www.w3.org/2000/svg"><path d="M9.371 22.207a6.355 6.355 0 01-4.508-1.863 6.39 6.39 0 01-.003-9.017l8.015-8.012a4.51 4.51 0 016.365 0 4.51 4.51 0 01.002 6.368l-6.662 6.659a2.603 2.603 0 01-1.855.769 2.6 2.6 0 01-1.857-.77 2.615 2.615 0 01-.77-1.856c0-.703.272-1.362.77-1.857l6.662-6.66 1.061 1.062-6.663 6.659c-.213.212-.33.495-.33.795 0 .3.117.583.33.795a1.119 1.119 0 001.592.002l6.664-6.66a3.009 3.009 0 00-.002-4.246 3.008 3.008 0 00-4.243 0l-8.015 8.012a4.887 4.887 0 00.002 6.896 4.882 4.882 0 006.894 0l8.013-8.012 1.062 1.06-8.014 8.014a6.367 6.367 0 01-4.51 1.862z" fill="currentColor"/></symbol>
<symbol id="i-ui-cancel" viewBox="0 0 24 24" fill="none" xmlns="http://www.w3.org/2000/svg"><path d="M12 0C5.373 0 0 5.373 0 12s5.373 12 12 12 12-5.373 12-12S18.627 0 12 0zm0 22.5C6.21 22.5 1.5 17.79 1.5 12S6.21 1.5 12 1.5 22.5 6.21 22.5 12 17.79 22.5 12 22.5zm4.773-6.787l-1.061 1.061L12 13.061l-3.713 3.712-1.061-1.061L10.939 12 7.226 8.288l1.061-1.061L12 10.94l3.713-3.713 1.061 1.062L13.061 12l3.712 3.713z" fill="currentColor"/></symbol>
<symbol id="i-ui-checkbox" viewBox="0 0 10 8" fill="none" xmlns="http://www.w3.org/2000/svg"><path fill-rule="evenodd" clip-rule="evenodd" d="M8.775.444l.35.35.357.357.35.35-.706.707-4.157 4.157-.338.338-.37.37-.337.337-.002.002-.35-.35-.357-.357-.35-.35.002-.003L1.264 4.75l-.707-.707.337-.338.37-.37.337-.337.707.707 1.603 1.603L8.068 1.15l.707-.707z" fill="currentColor"/></symbol>
<symbol id="i-ui-chevron" viewBox="0 0 12 7" fill="none" xmlns="http://www.w3.org/2000/svg"><path d="M6 6.598L11.656.94l-.707-.706-4.95 4.95L1.05.234.344.941 6 6.598z" fill="currentColor"/></symbol>
<symbol id="i-ui-close" viewBox="0 0 16 16" fill="none" xmlns="http://www.w3.org/2000/svg"><path d="M12.243 3.757l-8.485 8.486m.002-8.485l8.485 8.485" stroke="currentColor" stroke-width="1.5" stroke-linecap="round"/></symbol>
<symbol id="i-ui-done" viewBox="0 0 24 24" fill="none" xmlns="http://www.w3.org/2000/svg"><path fill-rule="evenodd" clip-rule="evenodd" d="M0 12C0 5.373 5.373 0 12 0s12 5.373 12 12-5.373 12-12 12S0 18.627 0 12zm10.593 4.173l-1.062-1.061L6.35 11.93l1.062-1.061 3.182 3.182 6.364-6.364 1.061 1.062-7.425 7.424z" fill="currentColor"/></symbol>
<symbol id="i-ui-exclamation" viewBox="0 0 24 24" fill="none" xmlns="http://www.w3.org/2000/svg"><path d="M22 12c0 5.522-4.477 10-10 10S2 17.522 2 12 6.477 2 12 2s10 4.478 10 10zm-10 7c.82 0 1.5-.656 1.5-1.5 0-.846-.68-1.5-1.5-1.5-.822 0-1.5.654-1.5 1.5 0 .844.678 1.5 1.5 1.5zm-.751-4.498h1.502L13.5 5h-3l.749 9.502z" fill="currentColor"/></symbol>
<symbol id="i-ui-icon-info-circle" xmlns="http://www.w3.org/2000/svg" fill="none" viewBox="0 0 16 16"><path fill="currentColor" fill-rule="evenodd" d="M8 16A8 8 0 108 0a8 8 0 000 16zM9 3a1 1 0 100 2 1 1 0 000-2zm.4 3h-2l-1.87 7h2L9.4 6z" clip-rule="evenodd"/></symbol>
<symbol id="i-ui-icon-play" viewBox="0 0 16 16" fill="none" xmlns="http://www.w3.org/2000/svg"><path d="M3 1l12.125 7L3 15V1z" fill="currentColor"/></symbol>
<symbol id="i-ui-icon-show-more" viewBox="0 0 32 32" fill="none" xmlns="http://www.w3.org/2000/svg"><path d="M22.5 17a1.5 1.5 0 11-.001-2.998A1.5 1.5 0 0122.501 17zm-6 0a1.5 1.5 0 11-.001-2.998A1.5 1.5 0 0116.501 17zm-6 0a1.5 1.5 0 11-.002-2.998A1.5 1.5 0 0110.5 17z" fill="currentColor"/></symbol>
<symbol id="i-ui-icon-star" viewBox="0 0 11 10" fill="none" xmlns="http://www.w3.org/2000/svg"><path d="M5.5 0l1.616 3.275 3.615.525-2.616 2.55.618 3.6L5.5 8.25l-3.233 1.7.618-3.6L.269 3.8l3.615-.525L5.5 0z" fill="currentColor"/></symbol>
<symbol id="i-ui-tooltip" viewBox="0 0 16 16" fill="none" xmlns="http://www.w3.org/2000/svg"><path d="M16 8A8 8 0 110 8a8 8 0 0116 0zm-1 0c0-3.859-3.141-7-7-7S1 4.141 1 8s3.141 7 7 7 7-3.141 7-7zM9 3a1 1 0 100 2 1 1 0 000-2zm.4 3h-2l-1.871 7h2L9.4 6z" fill="currentColor"/></symbol>
<symbol id="i-ui-trash" viewBox="0 0 24 24" fill="none" xmlns="http://www.w3.org/2000/svg"><path d="M16.5 13.35c0 1.761-.172 3.532-.511 5.265-.298 1.523-1.021 2.215-2.419 2.312-.677.049-1.372.073-2.07.073-.697 0-1.394-.024-2.07-.073-1.398-.098-2.121-.789-2.418-2.312a27.418 27.418 0 01-.512-5.266V7.5H5v5.85c0 1.857.182 3.727.539 5.553.428 2.191 1.701 3.375 3.783 3.521.721.052 1.445.077 2.178.077.733 0 1.459-.025 2.175-.077 2.085-.146 3.358-1.329 3.786-3.521.357-1.826.539-3.695.539-5.553V7.5h-1.5v5.85zM14 4.5V2H9v2.5H3V6h17V4.5h-6zm-1.5 0h-2v-1h2v1zm1.5 5h-1.5v7H14v-7zm-3.5 0H9v7h1.5v-7z" fill="currentColor"/></symbol>
<symbol id="i-user" viewBox="0 0 40 40" fill="none" xmlns="http://www.w3.org/2000/svg"><path d="M12.534 24.722c1.02-1.491 2.986-2.222 4.202-2.222l1-2.5h5l1 2.5c.946 0 2.904.444 4.202 2.222s2.007 3.037 1.216 3.611C28.236 29 23.075 31 20.236 31c-2.838 0-8-2-8.918-2.667-.791-.573 0-1.833 1.216-3.61z" stroke="currentColor"/><path d="M15.236 13.966c0-4.552 3.334-4.966 5-4.966 2.084 0 5 .993 5 4.966 0 4.965-3.333 7.034-5 7.034-1.666 0-4.583-1.655-5-7.034z" fill="#fff" stroke="currentColor"/><circle cx="20" cy="20" r="19.5" stroke="currentColor"/></symbol>
<symbol id="i-zoom" viewBox="0 0 40 40" fill="none" xmlns="http://www.w3.org/2000/svg"><rect width="40" height="40" rx="20" fill="#fff"/><path d="M19.082 16.582v5-5z" fill="#000"/><path d="M24.386 24.386a7.5 7.5 0 11.961-1.177c-.14.212-.798.977-.961 1.177zm0 0l4.032 4.032m-4.032-4.032c-.158.192.179-.18 0 0zm-7.803-5.303h5m-2.5-2.5v5" stroke="#000" stroke-width="1.5" stroke-linecap="round"/></symbol>
</svg>