<?xml version="1.0" encoding="UTF-8"?>
<svg version="1.1" xmlns="http://www.w3.org/2000/svg" xmlns:xlink="http://www.w3.org/1999/xlink">
<defs>

</defs>
<symbol id="i-close" xmlns="http://www.w3.org/2000/svg" fill="none" viewBox="0 0 8 8"><path stroke="currentColor" stroke-linecap="round" stroke-width="1.5" d="M7 1L1 7m0-6l6 6"/></symbol>
<symbol id="i-filter" fill="none" xmlns="http://www.w3.org/2000/svg" viewBox="0 0 24 24"><path d="M11.502 7H2v1.502h9.502V7zm5.998 5A4.5 4.5 0 0022 7.5 4.5 4.5 0 0017.5 3 4.5 4.5 0 0013 7.5a4.5 4.5 0 004.5 4.5zm0-1.5c-1.654 0-3-1.346-3-3s1.346-3 3-3 3 1.346 3 3-1.346 3-3 3zM12.498 17H22v-1.502h-9.502V17zM6.5 12A4.5 4.5 0 002 16.5 4.5 4.5 0 006.5 21a4.5 4.5 0 004.5-4.5A4.5 4.5 0 006.5 12zm0 1.5c1.654 0 3 1.346 3 3s-1.346 3-3 3-3-1.346-3-3 1.346-3 3-3z" fill="currentColor"/></symbol>
<symbol id="i-search" fill="none" xmlns="http://www.w3.org/2000/svg" viewBox="0 0 24 24"><path d="M21 20.939l-5.693-5.694A7.499 7.499 0 009.5 3 7.499 7.499 0 002 10.5a7.499 7.499 0 0012.246 5.807L19.939 22 21 20.939zM3.5 10.5c0-3.309 2.691-6 6-6s6 2.691 6 6-2.691 6-6 6-6-2.691-6-6z" fill="currentColor"/></symbol>
</svg>