<svg width="270" height="72" fill="none" xmlns="http://www.w3.org/2000/svg"><path d="M230 57H40V15h190v42zM51 47.7h6.4V41h3.3c5.8 0 10-2.9 10-8.4 0-5.3-3.8-8.3-9.7-8.3H51v23.4zM57.3 36v-6.2h3c2.4 0 3.8 1 3.8 3.1 0 2-1.4 3.1-3.7 3.1h-3zm27.9 12.3c7.2 0 12.6-5.5 12.6-12.2 0-6.8-5.3-12.2-12.6-12.2-7.2 0-12.6 5.4-12.6 12.1v.1c0 6.8 5.3 12.2 12.6 12.2zm0-5.9c-3.5 0-6-3-6-6.3 0-3.5 2.4-6.3 6-6.3 3.5 0 6 2.9 6 6.3 0 3.5-2.4 6.3-6 6.3zm25 5.8c5.8 0 9.5-2.8 9.5-7.6v-.1c0-4.4-3.3-6.1-8.7-7.3-3.2-.7-4-1.2-4-2.3 0-.9.7-1.6 2.3-1.6 2 0 4.4.8 6.6 2.3l3.2-4.5c-2.5-2-5.7-3.1-9.6-3.1-5.7 0-9.1 3.1-9.1 7.5 0 4.9 3.9 6.3 8.8 7.4 3.2.8 4 1.3 4 2.3 0 1-1 1.6-2.7 1.6A12 12 0 01103 40l-3.6 4.4c2.9 2.5 6.8 3.8 11 3.8zm21.6 0c5.7 0 9.4-2.8 9.4-7.6v-.1c0-4.4-3.3-6.1-8.7-7.3-3.2-.7-4-1.2-4-2.3 0-.9.7-1.6 2.3-1.6 2 0 4.4.8 6.5 2.3l3.3-4.5c-2.6-2-5.7-3.1-9.7-3.1-5.6 0-9 3.1-9 7.5 0 4.9 3.8 6.3 8.8 7.4 3.2.8 4 1.3 4 2.3 0 1-1 1.6-2.7 1.6a12 12 0 01-7.6-2.8l-3.6 4.4c2.8 2.5 6.8 3.8 11 3.8zm12.7-.4h6.6V24.3h-6.6v23.4zm10.8 0h12.1c5.6 0 8.9-2.4 8.9-6.4v-.1c0-3.2-1.8-4.8-4.7-5.7 2-1 3.6-2.5 3.6-5.3 0-1.6-.5-2.9-1.5-3.8-1.4-1.4-3.4-2.1-6.4-2.1h-12v23.4zm6.4-14v-4.2h4.2c2 0 3 .8 3 2v.1c0 1.4-1.1 2-3.1 2h-4.1zm0 8.8v-4.3h5c2.1 0 3.1.8 3.1 2v.2c0 1.3-1.1 2.1-3 2.1h-5.1zm17.6 5.2h17.9V42h-11.4V24.3h-6.5v23.4zm20.7 0h19v-5.5h-12.6v-3.7h11.2v-5.2h-11.2v-3.5h12.4v-5.5h-18.8v23.4z" fill="#000"/></svg>