<svg width="270" height="72" fill="none" xmlns="http://www.w3.org/2000/svg"><path d="M25 35.6c0-8.8 0-13.2 2.7-15.9C30.4 17 34.8 17 43.6 17h1.6c8.7 0 13.1 0 15.8 2.7 2.7 2.7 2.7 7.1 2.7 15.9v1.6c0 8.7 0 13.1-2.7 15.8-2.7 2.7-7 2.7-15.8 2.7h-1.6c-8.8 0-13.2 0-15.9-2.7C25 50.3 25 46 25 37.2v-1.6z" fill="#000"/><path fill-rule="evenodd" clip-rule="evenodd" d="M35.5 29.1h-2.8c-.8 0-1 .4-1 .8 0 .8 1 4.5 4.5 9.4 2.3 3.3 5.6 5.1 8.6 5.1 1.8 0 2-.4 2-1v-2.6c0-.8.2-1 .7-1 .5 0 1.2.3 2.9 1.9 1.9 1.9 2.2 2.7 3.3 2.7h2.8c.8 0 1.2-.4 1-1.2-.3-.7-1.2-1.9-2.4-3.3l-2-2c-.4-.5-.3-.8 0-1.3 0 0 3.5-4.8 3.8-6.5.2-.6 0-1-.8-1h-2.8c-.8 0-1 .4-1.3.8 0 0-1.4 3.5-3.4 5.8-.7.6-1 .9-1.4.9-.1 0-.4-.3-.4-.9v-5.6c0-.7-.2-1-.8-1h-4.4c-.5 0-.8.3-.8.7 0 .6 1 .8 1.2 2.7v4.2c0 .9-.2 1-.6 1-1 0-3.3-3.5-4.6-7.5-.3-.8-.6-1-1.3-1z" fill="#fff"/><path d="M91.1 36c1.5-.7 2.5-1.9 2.5-3.7 0-2.8-2.5-4.8-6.2-4.8h-8.5v17.8h8.9c3.8 0 6.5-2.1 6.5-5 0-2.1-1.4-3.7-3.2-4.3zm-8.3-5.3h4.6c1.4 0 2.3.9 2.3 2s-1 1.9-2.3 1.9h-4.6v-3.9zm5 11.3h-5v-4.3h5c1.5 0 2.5.9 2.5 2.2 0 1.3-1 2.1-2.5 2.1zM108.9 45.3h5.1L106 36l7.4-8.5h-4.6l-6 6.9h-1v-6.9h-3.9v17.8h4v-7.1h1l6 7zM124 45.6c5.6 0 9.5-3.8 9.5-9.2 0-5.4-3.9-9.2-9.5-9.2-5.5 0-9.5 3.8-9.5 9.2 0 5.4 4 9.2 9.5 9.2zm0-3.6c-3.2 0-5.4-2.3-5.4-5.6 0-3.4 2.2-5.7 5.4-5.7 3.3 0 5.4 2.3 5.4 5.7 0 3.3-2.2 5.6-5.4 5.6zM148.8 27.5v7h-8v-7H137v17.8h4V38h8v7.2h3.9V27.5h-4zM161.6 45.3h4V31h6.1v-3.6h-16.2v3.6h6.1v14.2zM181 27.2c-3.4 0-6.5 1.7-7.4 4.8l3.6.6c.6-1 1.8-2.1 3.6-2.1 2.1 0 3.4 1.5 3.6 3.9h-3.8c-5.3 0-7.9 2.2-7.9 5.5s2.6 5.7 6.2 5.7c3 0 4.9-1.7 5.7-3.1l.8 2.8h3v-10c0-5.2-2.9-8.1-7.4-8.1zm-1.2 15c-1.9 0-3.1-1-3.1-2.4s1-2.4 4-2.4h3.7c0 3-1.8 4.9-4.6 4.9zM203.6 45.3h5.2l-8.2-9.3 7.5-8.5h-4.7l-6 6.9h-.9v-6.9h-3.9v17.8h4v-7.1h.9l6.1 7zM215.5 45.3h3.9V31h6.1v-3.6h-16.2v3.6h6.2v14.2zM245 36.2c0-5.2-3.8-9-9.2-9a8.9 8.9 0 00-9.2 9.2c0 5.3 3.8 9.2 9.2 9.2 3.7 0 7.1-1.7 8.5-5.1l-3.7-.6A5.4 5.4 0 01236 42c-3 0-5-1.8-5.3-4.6h14.2l.1-1.2zm-9.2-5.6a5 5 0 015 3.8h-10a5 5 0 015-3.8z" fill="#000"/></svg>