<svg viewBox="0 0 224 208" fill="none" xmlns="http://www.w3.org/2000/svg"><path d="M223.545 36.526c0 6.117-4.746 11.877-13.117 16.918 8.371 5.041 13.117 10.801 13.117 16.918 0 6.118-4.747 11.879-13.119 16.92 8.372 5.042 13.119 10.803 13.119 16.92 0 6.117-4.746 11.877-13.117 16.919 8.371 5.041 13.117 10.801 13.117 16.918 0 6.117-4.746 11.878-13.118 16.919 8.372 5.042 13.118 10.802 13.118 16.92 0 19.838-49.92 35.92-111.5 35.92S.545 191.716.545 171.878c0-6.118 4.747-11.878 13.12-16.92-8.373-5.041-13.12-10.802-13.12-16.919 0-6.117 4.747-11.877 13.117-16.918C5.293 116.079.545 110.319.545 104.202c0-6.117 4.748-11.878 13.12-16.92C5.293 82.241.545 76.48.545 70.362c0-6.117 4.747-11.876 13.117-16.918C5.293 48.403.545 42.643.545 36.526c0-19.839 49.92-35.92 111.5-35.92s111.5 16.081 111.5 35.92z" fill="#fff"></path></svg>